# xmcd
#
# Track frame offsets:
#	150
#	18758
#	26977
#	39737
#	53840
#	79998
#	101746
#	109628
#	118754
#	143988
#	164120
#	170202
#	179097
#	185386
#	191914
#	199374
#	207117
#	212507
#	218877
#	226712
#	231200
#	246744
#	262773
#	275013
#	308216
#	317407
# Disc length: 4334 seconds
# Revision: 
#
# Submitted via: libkcddb 0.5
# Revision: 0
# Processed by: cddbd v1.5.2PL0 Copyright (c) Steve Scherf et al.
#
DISCID=8f10ec1a
DTITLE=Хор Московского Патриархата "Древнерусский распев" - Рождество Христово. Монастырские распевы XVI-XVII веков
DYEAR=1994
DGENRE=Chorus
TTITLE0=С нами Бог. Распевы XVI в. Супрасльского монастыря
TTITLE1=Господи воззвах, стихира глас 2. Распевы XVII в. Антониево-Сийского, Кирилло-Белозерского, Соловецкого монастырей
TTITLE2=Царство Твое, Христе Боже... Стихира, глас 2. Распевы XVI в. Супрасльского монастыря
TTITLE3=Господу Иисусу рождшуся... Стихира, глас 2. Распевы XVII в. Антониево-Сийского, Кирилло-Белозерского, Соловецкого монастырей
TTITLE4=Что Тебе принесем, Христе... Стихира, глас 2. Распевы XVII в. Антониево-Сийского, Кирилло-Белозерского, Соловецкого монастырей
TTITLE5=Августу, единаначальствующу на земли... Стихира, глас 2. Распевы XVII в. Антониево-Сийского, Кирилло-Белозерского, Соловецкого монастырей
TTITLE6=Ликуют ангели вси... Тропарь, глас 6. Распевы XVI в. Супрасльского монастыря
TTITLE7=Бог Господь... Глас 4. Распевы XVI в. Супрасльского монастыря
TTITLE8=Рождество Твое, Христе Боже наш... Тропарь, глас 4. Распевы XVII в. Антониево-Сийского, Кирилло-Белозерского, Соловецкого монастырей
TTITLE9=Âñÿ÷åñêàÿ äíåñü ðàäîñòè èñïîëíÿþòñÿ*
TTITLE10=Ïåñíü 1-ÿ - Õðèñòîñ ðàæäàåòñÿ, ñëàâèòå*
TTITLE11=Ïåñíü 1-ÿ - Õðèñòîñ ðàæäàåòñÿ, ñëàâèòå**
TTITLE12=Ïåñíü 3-ÿ - Ïðåæäå âåê*
TTITLE13=Ïåñíü 4-ÿ - Æåçë èç êîðåíå Èåññåîâà*
TTITLE14=Ïåñíü 5-ÿ - Áîã ñûí ìèðà*
TTITLE15=Ïåñíü 6-ÿ - Èç óòðîáû Èîíó*
TTITLE16=Êîíäàê,ãëàñ III, Äåâà äíåñü Ïðåñóùåñòâåííîãî ðàæäàåò*
TTITLE17=Ïåñíü 7-ÿ - Îòðîöû áëàãî÷åñòèþ ñîâîñïèòàíè*
TTITLE18=Ïåñíü 8-ÿ - ×óäà ïðååñòåñòâåííàãî*
TTITLE19=Ïåñíü 9-ÿ - Òàèíñòâî ñòðàííîå âèæó*
TTITLE20=Ïðèïåâ è âòîðîé èðìîñ 9-é ïåñíè - Ëþáèòå óáî íàì**
TTITLE21=Âñÿêîå äûõàíèå*
TTITLE22=Äíåñü Õðèñòîñ â Âèôëååìå ðàæäàåòñÿ*
TTITLE23=Ñëàâîñëîâèå âåëèêîå**
TTITLE24=Ðîæäåñòâî Òâîå, Õðèñòå Áîæå íàø**
TTITLE25=Âåëè÷àåì Òÿ, æèâîäàâ÷å Õðèñòå**
EXTD=Регент: Андрей Гринденко. Звукорежиссер: Петр Кондрашин. Место записи: храм Тихвинской иконы Богородицы в селе Душоново. Составление, дешифровка и обработка напевов: доктор искусствоведения профессор Анатолий Конотоп
EXTT0=Регент Анатолий Гринденко
EXTT1=Регент Анатолий Гринденко
EXTT2=Регент Анатолий Гринденко
EXTT3=Регент Анатолий Гринденко
EXTT4=Регент Анатолий Гринденко
EXTT5=Регент Анатолий Гринденко
EXTT6=
EXTT7=
EXTT8=
EXTT9=
EXTT10=
EXTT11=
EXTT12=
EXTT13=
EXTT14=
EXTT15=
EXTT16=
EXTT17=
EXTT18=
EXTT19=
EXTT20=
EXTT21=
EXTT22=
EXTT23=
EXTT24=
EXTT25=
PLAYORDER=
